<?xml version="1.0" encoding="UTF-8"?>
<svg width="24px" height="24px" viewBox="0 0 24 24" version="1.1" xmlns="http://www.w3.org/2000/svg" xmlns:xlink="http://www.w3.org/1999/xlink">
    <!-- Generator: Sketch 41.2 (35397) - http://www.bohemiancoding.com/sketch -->
    <title>dr</title>
    <desc>Created with Sketch.</desc>
    <defs></defs>
    <g id="Page-1" stroke="none" stroke-width="1" fill="none" fill-rule="evenodd">
        <g id="Homepage" transform="translate(-152.000000, -2996.000000)" fill="#656D78">
            <g id="Footer" transform="translate(0.000000, 2769.000000)">
                <g id="dr" transform="translate(152.000000, 227.000000)">
                    <g id="Layer_21">
                        <path d="M12,1.18423789e-15 C5.372583,-1.77635684e-15 5.92118946e-16,5.372583 0,12 C-5.92118946e-16,18.627417 5.372583,24 12,24 C18.627417,24 24,18.627417 24,12 C24,5.372583 18.627417,4.73695157e-15 12,0 L12,1.18423789e-15 Z M21.9916133,11.8344667 C20.5275017,11.4627998 19.0239297,11.2689574 17.5134267,11.2571333 C16.7493291,11.2558102 15.9862064,11.31174 15.2304667,11.4244533 C15.1708133,11.43348 15.1146667,11.45204 15.0552533,11.4617867 C14.8037867,10.8585956 14.5382178,10.2631111 14.2585467,9.67533333 C16.3695334,8.78600672 18.2512986,7.42943528 19.7622133,5.70772 C21.1725456,7.44151473 21.9578853,9.59975334 21.9916133,11.8344667 Z M18.3049467,4.24730667 C16.9594863,5.82863096 15.2604476,7.07078014 13.34548,7.87312 C12.2792772,5.9105979 11.0495556,4.04143509 9.66937333,2.28548 C12.6962153,1.54189515 15.896479,2.26892999 18.3049467,4.24730667 L18.3049467,4.24730667 Z M7.65982667,3.00488 C9.07954501,4.74521009 10.3415254,6.60846557 11.4308267,8.57258667 C8.57912606,9.36818636 5.62675208,9.74420405 2.66666667,9.6888 C2.53621333,9.6888 2.41218667,9.67822667 2.28417333,9.67422667 C2.9882,6.75891209 4.9605135,4.31194581 7.65982667,3.00488 L7.65982667,3.00488 Z M2,12 C2,11.8862267 2.01326667,11.77588 2.01709333,11.663 C2.23348,11.6718667 2.44548,11.6888 2.66666667,11.6888 C5.94847947,11.7492294 9.22021187,11.3070439 12.36824,10.3776 C12.6151467,10.8888267 12.8483867,11.4077067 13.0726667,11.9313867 C9.52511609,13.0796988 6.485201,15.422041 4.47045333,18.55964 C2.87837663,16.7452487 2.00034294,14.4138608 2,12 L2,12 Z M5.94514667,19.94 C7.741517,17.0088835 10.5356589,14.824795 13.8138,13.7893333 C14.69607,16.2168031 15.3248262,18.7290394 15.6900267,21.28592 C12.4325253,22.5941293 8.7260909,22.0822128 5.94514667,19.94 L5.94514667,19.94 Z M17.5664,20.3025467 C17.1855404,17.9468365 16.5927743,15.6303223 15.79532,13.3812133 C16.3831739,13.3051461 16.9753522,13.2673864 17.5681067,13.2681733 C19.0048502,13.2807371 20.4340784,13.477128 21.82096,13.85256 C21.3224607,16.4850178 19.7901261,18.8080443 17.5664,20.3024933 L17.5664,20.3025467 Z" id="Shape"></path>
                    </g>
                </g>
            </g>
        </g>
    </g>
</svg>